<svg xmlns="http://www.w3.org/2000/svg" viewBox="0 0 69 68.4"><defs><style>.cls-1,.cls-2{fill:none;stroke:#fff;stroke-linecap:round;stroke-linejoin:round;}.cls-2{stroke-width:2px;}</style></defs><title>Asset 1</title><g id="Layer_2" data-name="Layer 2"><g id="Layer_1-2" data-name="Layer 1"><path class="cls-1" d="M61.6,5.6a10.7,10.7,0,0,1,4.2,8.5c0,5.9-4.9,10.6-11.2,10.6a11.08,11.08,0,0,1-6.9-3.1"/><path class="cls-1" d="M44.8,14.1A10.52,10.52,0,0,1,55.3,3.5a10.3,10.3,0,0,1,3.5.6"/><path class="cls-2" d="M42.4,13.8a12.8,12.8,0,0,1,25.6,0c0,7-5.8,13.1-14.1,13.1a13,13,0,0,1-7.7-3.5"/><line class="cls-1" x1="55.3" y1="13.5" x2="63.2" y2="7.7"/><line class="cls-1" x1="55.3" y1="13.5" x2="55.3" y2="3.5"/><line class="cls-1" x1="55.3" y1="13.5" x2="47.5" y2="7"/><line class="cls-1" x1="55.3" y1="14.1" x2="65.8" y2="14.1"/><line class="cls-1" x1="55.6" y1="14.1" x2="62.9" y2="21.3"/><polygon class="cls-2" points="1 14.4 55.3 14.4 28.1 41.9 1 14.4"/><line class="cls-2" x1="28.1" y1="41.9" x2="28.1" y2="67.4"/><line class="cls-2" x1="15.1" y1="67.4" x2="39.8" y2="67.4"/><line class="cls-2" x1="10.1" y1="23.3" x2="45.9" y2="23.3"/><line class="cls-1" x1="55.3" y1="14.4" x2="55.3" y2="24.7"/></g></g></svg>