<svg xmlns="http://www.w3.org/2000/svg" viewBox="0 0 76.04 31.38"><defs><style>.cls-1{fill:#fff;}</style></defs><title>Asset 1</title><g id="Layer_2" data-name="Layer 2"><g id="Layer_1-2" data-name="Layer 1"><polygon class="cls-1" points="16.25 30.32 1 30.32 1 22.15 16.8 22.15 16.8 30.32 16.25 30.32"/><path class="cls-1" d="M0,31.32V21.15H69.54V31.32Zm2-2H67.53V23.15H2v6.17Z"/><polygon class="cls-1" points="70.19 31.38 70.19 21.04 71.69 21.04 71.69 31.38 70.19 31.38"/><polygon class="cls-1" points="72.36 31.38 72.36 21.03 73.87 21.03 73.87 31.38 72.36 31.38"/><polygon class="cls-1" points="74.54 31.38 74.54 21.03 76.04 21.03 76.04 31.38 74.54 31.38"/><path class="cls-1" d="M69,19.55a8,8,0,0,1-2.88-5.75h0a7,7,0,0,1,1-3.55h0a10.38,10.38,0,0,0,1.56-5.16h0A6,6,0,0,0,67.06.85h0a.5.5,0,0,1,0-.71h0a.5.5,0,0,1,.71,0h0a7,7,0,0,1,1.9,4.94h0A11.36,11.36,0,0,1,68,10.75h0a6,6,0,0,0-.88,3.05h0a6.22,6.22,0,0,0,1.25,3.6h0a7.25,7.25,0,0,0,1.25,1.37h0a.5.5,0,0,1,.08.7h0a.5.5,0,0,1-.39.19h0a.49.49,0,0,1-.31-.11Z"/><path class="cls-1" d="M72,19.55a8,8,0,0,1-2.88-5.75h0a7,7,0,0,1,1-3.55h0a10.39,10.39,0,0,0,1.56-5.16h0A6,6,0,0,0,70.06.86h0a.5.5,0,0,1,0-.71h0a.5.5,0,0,1,.71,0h0a7,7,0,0,1,1.9,4.94h0A11.36,11.36,0,0,1,71,10.75h0a6.05,6.05,0,0,0-.88,3.05h0a6.22,6.22,0,0,0,1.25,3.6h0a7.24,7.24,0,0,0,1.25,1.37h0a.5.5,0,0,1,.08.7h0a.5.5,0,0,1-.39.19h0a.5.5,0,0,1-.31-.11Z"/><path class="cls-1" d="M75,19.55a8,8,0,0,1-2.88-5.75h0a7,7,0,0,1,1-3.55h0a10.39,10.39,0,0,0,1.56-5.16h0A6,6,0,0,0,73.06.85h0a.51.51,0,0,1,0-.71h0a.5.5,0,0,1,.71,0h0a7,7,0,0,1,1.9,4.94h0A11.37,11.37,0,0,1,74,10.75h0a6,6,0,0,0-.87,3h0a6.2,6.2,0,0,0,1.25,3.6h0a7.31,7.31,0,0,0,1.25,1.37h0a.5.5,0,0,1,.08.7h0a.5.5,0,0,1-.39.19h0a.49.49,0,0,1-.31-.11Z"/></g></g></svg>