<svg xmlns="http://www.w3.org/2000/svg" viewBox="0 0 62.1 71.3"><title>Asset 1</title><g id="Layer_2" fill="#fff" data-name="Layer 2"><g id="Layer_1-2" data-name="Layer 1"><path d="M51,0a12.45,12.45,0,0,0-7.65,3.23,23,23,0,0,0-6.86,11.45,23.71,23.71,0,0,0-.14,12.16.73.73,0,0,0,.56.53l17.64,4.77a.82.82,0,0,0,.79-.22,23.77,23.77,0,0,0,5.87-10.56A23.39,23.39,0,0,0,61,8c-1.38-3.9-4.09-6.77-7.42-7.66A10,10,0,0,0,51,0Zm0,1.6a6.63,6.63,0,0,1,2.12.25c2.71.73,5.11,3.14,6.35,6.68a21.73,21.73,0,0,1,.17,12.41,22.34,22.34,0,0,1-5.22,9.52L37.87,26a22.34,22.34,0,0,1,.2-10.89A21.76,21.76,0,0,1,44.39,4.44,10.78,10.78,0,0,1,51,1.6ZM10.44,17a8.77,8.77,0,0,0-1.95.28c-3.36.9-6,3.76-7.42,7.69a23.3,23.3,0,0,0-.2,13.36A23.77,23.77,0,0,0,6.75,48.85a.9.9,0,0,0,.79.22L25.17,44.3a.72.72,0,0,0,.56-.56,23.82,23.82,0,0,0-.17-12.1,23.12,23.12,0,0,0-6.83-11.48A12.32,12.32,0,0,0,11.09,17a2.4,2.4,0,0,0-.65,0ZM11,18.53a10.79,10.79,0,0,1,6.66,2.83A21.63,21.63,0,0,1,24,32a22.35,22.35,0,0,1,.23,10.89L7.62,47.39A22.5,22.5,0,0,1,2.4,37.87a21.81,21.81,0,0,1,.2-12.44c1.24-3.51,3.58-5.92,6.32-6.65A6.68,6.68,0,0,1,11,18.53Zm27.4,13.56a.85.85,0,0,0-.45.22,16.41,16.41,0,0,0-4.06,7.3,16.16,16.16,0,0,0,.17,9.21,7.86,7.86,0,0,0,5.16,5.33,7.91,7.91,0,0,0,7.14-2,16.07,16.07,0,0,0,4.71-7.89,16.52,16.52,0,0,0,.11-8.37.83.83,0,0,0-.56-.53L38.75,32.12a1,1,0,0,0-.31,0Zm.42,1.71,10.86,2.92a14.82,14.82,0,0,1-.17,7.1A14.6,14.6,0,0,1,45.38,51a6.41,6.41,0,0,1-5.7,1.68,6.46,6.46,0,0,1-4.12-4.35,15.27,15.27,0,0,1,3.3-14.49ZM23.54,49a.69.69,0,0,0-.2.06L11.43,52.25a.81.81,0,0,0-.54.59A16.4,16.4,0,0,0,11,61.17,15.87,15.87,0,0,0,15.69,69a7.91,7.91,0,0,0,7.17,2A8,8,0,0,0,28,65.72a16.05,16.05,0,0,0,.17-9.18,16.59,16.59,0,0,0-4.06-7.27.77.77,0,0,0-.59-.25Zm-.28,1.71a14.89,14.89,0,0,1,3.39,6.2,14.66,14.66,0,0,1-.14,8.28,6.46,6.46,0,0,1-4.06,4.35,6.44,6.44,0,0,1-5.7-1.71,14.55,14.55,0,0,1-4.2-7.1,15.2,15.2,0,0,1-.17-7.1l10.89-2.92Z"/></g></g></svg>
