<svg xmlns="http://www.w3.org/2000/svg" viewBox="0 0 33.01 34.19"><defs><style>.cls-1,.cls-2{fill:none;stroke:#fff;stroke-linecap:round;}.cls-1{stroke-miterlimit:10;}.cls-2{stroke-linejoin:round;}</style></defs><title>Asset 1</title><g id="Layer_2" data-name="Layer 2"><g id="Layer_1-2" data-name="Layer 1"><path class="cls-1" d="M8.58,30.4a16,16,0,1,1,15.64.12"/><line class="cls-2" x1="7.01" y1="13.4" x2="13.01" y2="13.4"/><line class="cls-2" x1="20.01" y1="13.4" x2="26.01" y2="13.4"/><path class="cls-2" d="M11,30.87V13.4H9V30.87c-1.16.41-3,1.51-3,2.82h8C14,32.38,12.17,31.28,11,30.87Z"/><path class="cls-2" d="M24,30.87V13.4H22V30.87c-1.16.41-3,1.51-3,2.82h8C27,32.38,25.17,31.28,24,30.87Z"/><path class="cls-1" d="M13.42,23.12a3.59,3.59,0,0,1,3-2,3.58,3.58,0,0,1,3,2"/></g></g></svg>